<mxfile host="app.diagrams.net" modified="2024-06-14T09:50:34.402Z" agent="Mozilla/5.0 (Windows NT 10.0; Win64; x64) AppleWebKit/537.36 (KHTML, like Gecko) Chrome/126.0.0.0 Safari/537.36" etag="Vr3XWgbCWDSzRFZ5bFgB" version="24.5.4" type="github">
  <diagram name="Page-1" id="10a91c8b-09ff-31b1-d368-03940ed4cc9e">
    <mxGraphModel dx="875" dy="435" grid="1" gridSize="10" guides="1" tooltips="1" connect="1" arrows="1" fold="1" page="1" pageScale="1" pageWidth="1100" pageHeight="850" background="none" math="0" shadow="0">
      <root>
        <mxCell id="0" />
        <mxCell id="1" parent="0" />
        <mxCell id="A8scdIbVoGo1jS-KfTbk-1" value="Chất liệu" style="whiteSpace=wrap;html=1;rounded=1;shadow=1;labelBackgroundColor=none;strokeWidth=1;fontFamily=Verdana;fontSize=12;align=center;" vertex="1" parent="1">
          <mxGeometry x="720" y="60" width="120" height="60" as="geometry" />
        </mxCell>
        <mxCell id="A8scdIbVoGo1jS-KfTbk-2" value="Loại" style="whiteSpace=wrap;html=1;rounded=1;shadow=1;labelBackgroundColor=none;strokeWidth=1;fontFamily=Verdana;fontSize=12;align=center;" vertex="1" parent="1">
          <mxGeometry x="550" y="160" width="130" height="70" as="geometry" />
        </mxCell>
        <mxCell id="A8scdIbVoGo1jS-KfTbk-4" value="Nhựa PP" style="rounded=0;html=1;labelBackgroundColor=none;startArrow=none;startFill=0;startSize=5;endArrow=none;endFill=0;endSize=5;jettySize=auto;orthogonalLoop=1;strokeWidth=1;fontFamily=Verdana;fontSize=12;entryX=0.5;entryY=0;entryDx=0;entryDy=0;" edge="1" parent="1" source="A8scdIbVoGo1jS-KfTbk-1" target="A8scdIbVoGo1jS-KfTbk-46">
          <mxGeometry x="0.252" y="13" relative="1" as="geometry">
            <mxPoint y="-1" as="offset" />
            <mxPoint x="910.7692307692305" y="190" as="targetPoint" />
          </mxGeometry>
        </mxCell>
        <mxCell id="A8scdIbVoGo1jS-KfTbk-5" value="Cao su" style="rounded=0;html=1;labelBackgroundColor=none;startArrow=none;startFill=0;startSize=5;endArrow=none;endFill=0;endSize=5;jettySize=auto;orthogonalLoop=1;strokeWidth=1;fontFamily=Verdana;fontSize=12" edge="1" parent="1" source="A8scdIbVoGo1jS-KfTbk-1" target="A8scdIbVoGo1jS-KfTbk-2">
          <mxGeometry x="0.3412" y="-20" relative="1" as="geometry">
            <mxPoint as="offset" />
          </mxGeometry>
        </mxCell>
        <mxCell id="A8scdIbVoGo1jS-KfTbk-23" value="" style="endArrow=none;html=1;rounded=0;exitX=0.5;exitY=0;exitDx=0;exitDy=0;" edge="1" parent="1" source="A8scdIbVoGo1jS-KfTbk-26" target="A8scdIbVoGo1jS-KfTbk-2">
          <mxGeometry width="50" height="50" relative="1" as="geometry">
            <mxPoint x="546.6666666666667" y="280" as="sourcePoint" />
            <mxPoint x="440" y="270" as="targetPoint" />
          </mxGeometry>
        </mxCell>
        <mxCell id="A8scdIbVoGo1jS-KfTbk-80" value="Búp bê" style="edgeLabel;html=1;align=center;verticalAlign=middle;resizable=0;points=[];" vertex="1" connectable="0" parent="A8scdIbVoGo1jS-KfTbk-23">
          <mxGeometry x="0.1482" y="-8" relative="1" as="geometry">
            <mxPoint as="offset" />
          </mxGeometry>
        </mxCell>
        <mxCell id="A8scdIbVoGo1jS-KfTbk-26" value="&lt;span&gt;Thấp&lt;/span&gt;" style="whiteSpace=wrap;html=1;rounded=0;shadow=1;labelBackgroundColor=none;strokeWidth=2;fontFamily=Verdana;fontSize=12;align=center;" vertex="1" parent="1">
          <mxGeometry x="390" y="280" width="80" height="40" as="geometry" />
        </mxCell>
        <mxCell id="A8scdIbVoGo1jS-KfTbk-38" value="&lt;span&gt;Thấp&lt;/span&gt;" style="whiteSpace=wrap;html=1;rounded=0;shadow=1;labelBackgroundColor=none;strokeWidth=2;fontFamily=Verdana;fontSize=12;align=center;" vertex="1" parent="1">
          <mxGeometry x="710" y="280" width="60" height="40" as="geometry" />
        </mxCell>
        <mxCell id="A8scdIbVoGo1jS-KfTbk-39" value="" style="endArrow=none;html=1;rounded=0;" edge="1" source="A8scdIbVoGo1jS-KfTbk-38" target="A8scdIbVoGo1jS-KfTbk-2" parent="1">
          <mxGeometry width="50" height="50" relative="1" as="geometry">
            <mxPoint x="370" y="620" as="sourcePoint" />
            <mxPoint x="563.6363636363635" y="340" as="targetPoint" />
          </mxGeometry>
        </mxCell>
        <mxCell id="A8scdIbVoGo1jS-KfTbk-40" value="Điều khiển" style="edgeLabel;html=1;align=center;verticalAlign=middle;resizable=0;points=[];" vertex="1" connectable="0" parent="A8scdIbVoGo1jS-KfTbk-39">
          <mxGeometry x="0.1275" y="-1" relative="1" as="geometry">
            <mxPoint as="offset" />
          </mxGeometry>
        </mxCell>
        <mxCell id="A8scdIbVoGo1jS-KfTbk-42" value="" style="endArrow=none;html=1;rounded=0;entryX=0.5;entryY=1;entryDx=0;entryDy=0;" edge="1" source="A8scdIbVoGo1jS-KfTbk-81" target="A8scdIbVoGo1jS-KfTbk-2" parent="1">
          <mxGeometry width="50" height="50" relative="1" as="geometry">
            <mxPoint x="590" y="280" as="sourcePoint" />
            <mxPoint x="596.3636363636365" y="340" as="targetPoint" />
          </mxGeometry>
        </mxCell>
        <mxCell id="A8scdIbVoGo1jS-KfTbk-43" value="Xếp hình" style="edgeLabel;html=1;align=center;verticalAlign=middle;resizable=0;points=[];" vertex="1" connectable="0" parent="A8scdIbVoGo1jS-KfTbk-42">
          <mxGeometry x="0.0124" y="-4" relative="1" as="geometry">
            <mxPoint as="offset" />
          </mxGeometry>
        </mxCell>
        <mxCell id="A8scdIbVoGo1jS-KfTbk-46" value="&lt;span&gt;Loại&lt;/span&gt;" style="whiteSpace=wrap;html=1;rounded=1;shadow=1;labelBackgroundColor=none;strokeWidth=1;fontFamily=Verdana;fontSize=12;align=center;" vertex="1" parent="1">
          <mxGeometry x="900" y="160" width="120" height="60" as="geometry" />
        </mxCell>
        <mxCell id="A8scdIbVoGo1jS-KfTbk-47" value="&lt;span&gt;Cao&lt;/span&gt;" style="whiteSpace=wrap;html=1;rounded=0;shadow=1;labelBackgroundColor=none;strokeWidth=2;fontFamily=Verdana;fontSize=12;align=center;" vertex="1" parent="1">
          <mxGeometry x="960" y="280" width="60" height="40" as="geometry" />
        </mxCell>
        <mxCell id="A8scdIbVoGo1jS-KfTbk-48" value="" style="endArrow=none;html=1;rounded=0;" edge="1" source="A8scdIbVoGo1jS-KfTbk-55" target="A8scdIbVoGo1jS-KfTbk-46" parent="1">
          <mxGeometry width="50" height="50" relative="1" as="geometry">
            <mxPoint x="840" y="310" as="sourcePoint" />
            <mxPoint x="730" y="340" as="targetPoint" />
          </mxGeometry>
        </mxCell>
        <mxCell id="A8scdIbVoGo1jS-KfTbk-49" value="Búp bê" style="edgeLabel;html=1;align=center;verticalAlign=middle;resizable=0;points=[];" vertex="1" connectable="0" parent="A8scdIbVoGo1jS-KfTbk-48">
          <mxGeometry x="0.1275" y="-1" relative="1" as="geometry">
            <mxPoint as="offset" />
          </mxGeometry>
        </mxCell>
        <mxCell id="A8scdIbVoGo1jS-KfTbk-51" value="" style="endArrow=none;html=1;rounded=0;" edge="1" source="A8scdIbVoGo1jS-KfTbk-68" target="A8scdIbVoGo1jS-KfTbk-46" parent="1">
          <mxGeometry width="50" height="50" relative="1" as="geometry">
            <mxPoint x="1050" y="330" as="sourcePoint" />
            <mxPoint x="950" y="350" as="targetPoint" />
          </mxGeometry>
        </mxCell>
        <mxCell id="A8scdIbVoGo1jS-KfTbk-52" value="Xếp hình" style="edgeLabel;html=1;align=center;verticalAlign=middle;resizable=0;points=[];" vertex="1" connectable="0" parent="A8scdIbVoGo1jS-KfTbk-51">
          <mxGeometry x="0.0124" y="-4" relative="1" as="geometry">
            <mxPoint as="offset" />
          </mxGeometry>
        </mxCell>
        <mxCell id="A8scdIbVoGo1jS-KfTbk-53" value="" style="endArrow=none;html=1;rounded=0;entryX=0.75;entryY=1;entryDx=0;entryDy=0;" edge="1" parent="1" source="A8scdIbVoGo1jS-KfTbk-47" target="A8scdIbVoGo1jS-KfTbk-46">
          <mxGeometry width="50" height="50" relative="1" as="geometry">
            <mxPoint x="1030" y="320" as="sourcePoint" />
            <mxPoint x="950" y="300" as="targetPoint" />
          </mxGeometry>
        </mxCell>
        <mxCell id="A8scdIbVoGo1jS-KfTbk-54" value="Điều khiển" style="edgeLabel;html=1;align=center;verticalAlign=middle;resizable=0;points=[];" vertex="1" connectable="0" parent="A8scdIbVoGo1jS-KfTbk-53">
          <mxGeometry x="-0.4372" relative="1" as="geometry">
            <mxPoint as="offset" />
          </mxGeometry>
        </mxCell>
        <mxCell id="A8scdIbVoGo1jS-KfTbk-55" value="&lt;span style=&quot;font-size:11.0pt;font-family:&lt;br/&gt;&amp;quot;Times New Roman&amp;quot;,serif;mso-fareast-font-family:&amp;quot;Times New Roman&amp;quot;;mso-ansi-language:&lt;br/&gt;EN-US;mso-fareast-language:EN-US;mso-bidi-language:AR-SA&quot; lang=&quot;EN-US&quot;&gt;Số màu&lt;/span&gt;" style="whiteSpace=wrap;html=1;rounded=1;shadow=1;labelBackgroundColor=none;strokeWidth=1;fontFamily=Verdana;fontSize=12;align=center;" vertex="1" parent="1">
          <mxGeometry x="810" y="280" width="120" height="60" as="geometry" />
        </mxCell>
        <mxCell id="A8scdIbVoGo1jS-KfTbk-56" value="" style="endArrow=none;html=1;rounded=0;exitX=0.5;exitY=0;exitDx=0;exitDy=0;" edge="1" parent="1" source="A8scdIbVoGo1jS-KfTbk-57" target="A8scdIbVoGo1jS-KfTbk-55">
          <mxGeometry width="50" height="50" relative="1" as="geometry">
            <mxPoint x="810" y="430" as="sourcePoint" />
            <mxPoint x="960" y="450" as="targetPoint" />
          </mxGeometry>
        </mxCell>
        <mxCell id="A8scdIbVoGo1jS-KfTbk-58" value="3" style="edgeLabel;html=1;align=center;verticalAlign=middle;resizable=0;points=[];" vertex="1" connectable="0" parent="A8scdIbVoGo1jS-KfTbk-56">
          <mxGeometry x="-0.084" y="-1" relative="1" as="geometry">
            <mxPoint as="offset" />
          </mxGeometry>
        </mxCell>
        <mxCell id="A8scdIbVoGo1jS-KfTbk-57" value="&lt;span&gt;Thấp&lt;/span&gt;" style="whiteSpace=wrap;html=1;rounded=0;shadow=1;labelBackgroundColor=none;strokeWidth=2;fontFamily=Verdana;fontSize=12;align=center;" vertex="1" parent="1">
          <mxGeometry x="750" y="400" width="60" height="40" as="geometry" />
        </mxCell>
        <mxCell id="A8scdIbVoGo1jS-KfTbk-61" value="" style="endArrow=none;html=1;rounded=0;exitX=0.5;exitY=0;exitDx=0;exitDy=0;entryX=0.5;entryY=1;entryDx=0;entryDy=0;" edge="1" source="A8scdIbVoGo1jS-KfTbk-63" parent="1" target="A8scdIbVoGo1jS-KfTbk-55">
          <mxGeometry width="50" height="50" relative="1" as="geometry">
            <mxPoint x="920" y="450" as="sourcePoint" />
            <mxPoint x="939" y="400" as="targetPoint" />
          </mxGeometry>
        </mxCell>
        <mxCell id="A8scdIbVoGo1jS-KfTbk-62" value="5" style="edgeLabel;html=1;align=center;verticalAlign=middle;resizable=0;points=[];" vertex="1" connectable="0" parent="A8scdIbVoGo1jS-KfTbk-61">
          <mxGeometry x="-0.084" y="-1" relative="1" as="geometry">
            <mxPoint as="offset" />
          </mxGeometry>
        </mxCell>
        <mxCell id="A8scdIbVoGo1jS-KfTbk-63" value="&lt;span&gt;Cao&lt;/span&gt;" style="whiteSpace=wrap;html=1;rounded=0;shadow=1;labelBackgroundColor=none;strokeWidth=2;fontFamily=Verdana;fontSize=12;align=center;" vertex="1" parent="1">
          <mxGeometry x="830" y="400" width="60" height="40" as="geometry" />
        </mxCell>
        <mxCell id="A8scdIbVoGo1jS-KfTbk-65" value="" style="endArrow=none;html=1;rounded=0;entryX=0.771;entryY=1.029;entryDx=0;entryDy=0;entryPerimeter=0;" edge="1" source="A8scdIbVoGo1jS-KfTbk-67" parent="1" target="A8scdIbVoGo1jS-KfTbk-55">
          <mxGeometry width="50" height="50" relative="1" as="geometry">
            <mxPoint x="935" y="390" as="sourcePoint" />
            <mxPoint x="969" y="380" as="targetPoint" />
          </mxGeometry>
        </mxCell>
        <mxCell id="A8scdIbVoGo1jS-KfTbk-66" value="7" style="edgeLabel;html=1;align=center;verticalAlign=middle;resizable=0;points=[];" vertex="1" connectable="0" parent="A8scdIbVoGo1jS-KfTbk-65">
          <mxGeometry x="-0.084" y="-1" relative="1" as="geometry">
            <mxPoint as="offset" />
          </mxGeometry>
        </mxCell>
        <mxCell id="A8scdIbVoGo1jS-KfTbk-67" value="&lt;span&gt;Cao&lt;/span&gt;" style="whiteSpace=wrap;html=1;rounded=0;shadow=1;labelBackgroundColor=none;strokeWidth=2;fontFamily=Verdana;fontSize=12;align=center;" vertex="1" parent="1">
          <mxGeometry x="910" y="400" width="50" height="40" as="geometry" />
        </mxCell>
        <mxCell id="A8scdIbVoGo1jS-KfTbk-68" value="Kích thước" style="whiteSpace=wrap;html=1;rounded=1;shadow=1;labelBackgroundColor=none;strokeWidth=1;fontFamily=Verdana;fontSize=12;align=center;" vertex="1" parent="1">
          <mxGeometry x="1090" y="280" width="130" height="70" as="geometry" />
        </mxCell>
        <mxCell id="A8scdIbVoGo1jS-KfTbk-73" value="&lt;span&gt;Thấp&lt;/span&gt;" style="whiteSpace=wrap;html=1;rounded=0;shadow=1;labelBackgroundColor=none;strokeWidth=2;fontFamily=Verdana;fontSize=12;align=center;" vertex="1" parent="1">
          <mxGeometry x="1200" y="400" width="80" height="40" as="geometry" />
        </mxCell>
        <mxCell id="A8scdIbVoGo1jS-KfTbk-74" value="Nhỏ" style="rounded=0;html=1;labelBackgroundColor=none;startArrow=none;startFill=0;startSize=5;endArrow=none;endFill=0;endSize=5;jettySize=auto;orthogonalLoop=1;strokeWidth=1;fontFamily=Verdana;fontSize=12" edge="1" target="A8scdIbVoGo1jS-KfTbk-77" parent="1" source="A8scdIbVoGo1jS-KfTbk-68">
          <mxGeometry x="0.0662" y="-14" relative="1" as="geometry">
            <mxPoint y="-1" as="offset" />
            <mxPoint x="1249" y="380" as="sourcePoint" />
            <mxPoint x="1070" y="450" as="targetPoint" />
          </mxGeometry>
        </mxCell>
        <mxCell id="A8scdIbVoGo1jS-KfTbk-76" value="To" style="rounded=0;html=1;labelBackgroundColor=none;startArrow=none;startFill=0;startSize=5;endArrow=none;endFill=0;endSize=5;jettySize=auto;orthogonalLoop=1;strokeWidth=1;fontFamily=Verdana;fontSize=12;exitX=0.75;exitY=1;exitDx=0;exitDy=0;" edge="1" target="A8scdIbVoGo1jS-KfTbk-73" parent="1" source="A8scdIbVoGo1jS-KfTbk-68">
          <mxGeometry x="0.136" y="14" relative="1" as="geometry">
            <mxPoint as="offset" />
            <mxPoint x="1213.2608695652175" y="470" as="targetPoint" />
            <mxPoint x="1301" y="380" as="sourcePoint" />
          </mxGeometry>
        </mxCell>
        <mxCell id="A8scdIbVoGo1jS-KfTbk-77" value="&lt;span&gt;Cao&lt;/span&gt;" style="whiteSpace=wrap;html=1;rounded=0;shadow=1;labelBackgroundColor=none;strokeWidth=2;fontFamily=Verdana;fontSize=12;align=center;" vertex="1" parent="1">
          <mxGeometry x="1060" y="400" width="80" height="40" as="geometry" />
        </mxCell>
        <mxCell id="A8scdIbVoGo1jS-KfTbk-81" value="&lt;span style=&quot;font-size:11.0pt;font-family:&lt;br/&gt;&amp;quot;Times New Roman&amp;quot;,serif;mso-fareast-font-family:&amp;quot;Times New Roman&amp;quot;;mso-ansi-language:&lt;br/&gt;EN-US;mso-fareast-language:EN-US;mso-bidi-language:AR-SA&quot; lang=&quot;EN-US&quot;&gt;Số màu&lt;/span&gt;" style="whiteSpace=wrap;html=1;rounded=1;shadow=1;labelBackgroundColor=none;strokeWidth=1;fontFamily=Verdana;fontSize=12;align=center;" vertex="1" parent="1">
          <mxGeometry x="530" y="280" width="120" height="60" as="geometry" />
        </mxCell>
        <mxCell id="A8scdIbVoGo1jS-KfTbk-87" value="" style="endArrow=none;html=1;rounded=0;exitX=0.5;exitY=0;exitDx=0;exitDy=0;" edge="1" source="A8scdIbVoGo1jS-KfTbk-89" parent="1" target="A8scdIbVoGo1jS-KfTbk-81">
          <mxGeometry width="50" height="50" relative="1" as="geometry">
            <mxPoint x="640" y="470" as="sourcePoint" />
            <mxPoint x="590" y="360" as="targetPoint" />
          </mxGeometry>
        </mxCell>
        <mxCell id="A8scdIbVoGo1jS-KfTbk-88" value="5" style="edgeLabel;html=1;align=center;verticalAlign=middle;resizable=0;points=[];" vertex="1" connectable="0" parent="A8scdIbVoGo1jS-KfTbk-87">
          <mxGeometry x="-0.084" y="-1" relative="1" as="geometry">
            <mxPoint as="offset" />
          </mxGeometry>
        </mxCell>
        <mxCell id="A8scdIbVoGo1jS-KfTbk-89" value="&lt;span&gt;Thấp&lt;/span&gt;" style="whiteSpace=wrap;html=1;rounded=0;shadow=1;labelBackgroundColor=none;strokeWidth=2;fontFamily=Verdana;fontSize=12;align=center;" vertex="1" parent="1">
          <mxGeometry x="500" y="400" width="60" height="40" as="geometry" />
        </mxCell>
        <mxCell id="A8scdIbVoGo1jS-KfTbk-90" value="" style="endArrow=none;html=1;rounded=0;entryX=0.75;entryY=1;entryDx=0;entryDy=0;" edge="1" source="A8scdIbVoGo1jS-KfTbk-92" parent="1" target="A8scdIbVoGo1jS-KfTbk-81">
          <mxGeometry width="50" height="50" relative="1" as="geometry">
            <mxPoint x="655" y="410" as="sourcePoint" />
            <mxPoint x="623" y="362" as="targetPoint" />
          </mxGeometry>
        </mxCell>
        <mxCell id="A8scdIbVoGo1jS-KfTbk-91" value="7" style="edgeLabel;html=1;align=center;verticalAlign=middle;resizable=0;points=[];" vertex="1" connectable="0" parent="A8scdIbVoGo1jS-KfTbk-90">
          <mxGeometry x="-0.084" y="-1" relative="1" as="geometry">
            <mxPoint as="offset" />
          </mxGeometry>
        </mxCell>
        <mxCell id="A8scdIbVoGo1jS-KfTbk-92" value="&lt;span&gt;Cao&lt;/span&gt;" style="whiteSpace=wrap;html=1;rounded=0;shadow=1;labelBackgroundColor=none;strokeWidth=2;fontFamily=Verdana;fontSize=12;align=center;" vertex="1" parent="1">
          <mxGeometry x="620" y="400" width="50" height="40" as="geometry" />
        </mxCell>
      </root>
    </mxGraphModel>
  </diagram>
</mxfile>
